<mxfile host="app.diagrams.net" modified="2023-10-09T17:05:20.007Z" agent="Mozilla/5.0 (Windows NT 10.0; Win64; x64) AppleWebKit/537.36 (KHTML, like Gecko) Chrome/117.0.0.0 Safari/537.36 Edg/117.0.2045.60" version="22.0.4" etag="lkCAnkvateDq84MmBKVB" type="github">
  <diagram name="Страница — 1" id="mw8o44b9BGQb71DfHfyJ">
    <mxGraphModel>
      <root>
        <mxCell id="0" />
        <mxCell id="1" parent="0" />
      </root>
    </mxGraphModel>
  </diagram>
</mxfile>
